<?xml version="1.0" encoding="utf-8"?>
<!-- Generator: Adobe Illustrator 26.0.1, SVG Export Plug-In . SVG Version: 6.00 Build 0)  -->
<svg version="1.1" id="Layer_1" xmlns="http://www.w3.org/2000/svg" xmlns:xlink="http://www.w3.org/1999/xlink" x="0px" y="0px"
	 viewBox="0 0 492 90" style="enable-background:new 0 0 492 90;" xml:space="preserve">
<style type="text/css">
	.st0{fill:url(#SVGID_1_);}
	.st1{fill:url(#SVGID_00000103972570932031830780000011492609366256804493_);}
</style>
<g id="_x36_3f6b819-846b-43ae-91fa-3a5a9b63e9cc" transform="matrix(2.8125,0,0,2.8125,-7.170000076293945,0)">
	
		<linearGradient id="SVGID_1_" gradientUnits="userSpaceOnUse" x1="-17.5657" y1="155.9462" x2="-16.5657" y2="155.9462" gradientTransform="matrix(67.1404 38.0356 31.3081 -81.5677 -3701.0947 13395.3115)">
		<stop  offset="0" style="stop-color:#A53E33"/>
		<stop  offset="1" style="stop-color:#BA69C9"/>
	</linearGradient>
	<path class="st0" d="M4.6,18.2l26.3-9.1L4.6,0V18.2z M30.9,32V13.8L4.6,22.9L30.9,32z"/>
</g>
<g id="e9d50485-a99a-43c8-8389-7fc179abf5c6" transform="matrix(2.3678828040959443,0,0,2.3678828040959443,39.24227744905731,118.63739140163737)">
	
		<linearGradient id="SVGID_00000105395647152771810520000017784009517611077259_" gradientUnits="userSpaceOnUse" x1="-40.0714" y1="133.7907" x2="-38.2653" y2="133.7907" gradientTransform="matrix(199.3877 14.04 92.976 -30.1088 -4449.082 4552.6465)">
		<stop  offset="0" style="stop-color:#A53E33"/>
		<stop  offset="1" style="stop-color:#BA69C9"/>
	</linearGradient>
	<path style="fill:url(#SVGID_00000105395647152771810520000017784009517611077259_);" d="M30.2-28.2L30.2-28.2c0.7,0.3,1,0.7,1,1.2
		l0,0l0,0c0,0.3-0.2,0.6-0.5,0.9l0,0l0,0c-0.3,0.3-0.6,0.5-1,0.6l0,0l0,0c-0.9,0.1-1.6,0.2-2,0.2l0,0l0,0c-2.3,0.2-3.8,0.4-4.8,0.5
		l0,0l0,0c-0.2,0.1-0.5,0.2-1,0.2l0,0l0,0c-0.5,0-0.9-0.2-1.3-0.7l0,0l0,0c-0.4-0.4-0.5-0.9-0.5-1.4l0,0l0,0c0-0.2,0-0.4,0.1-0.5
		l0,0l3.3-12.8l0,0c0.2-0.7,0.4-1.2,0.6-1.5l0,0l0,0c0.2-0.2,0.6-0.4,1.2-0.4l0,0l0,0c0.5,0,0.8,0,1.2,0.1l0,0l0,0
		c0.3,0.1,0.5,0.3,0.5,0.5l0,0l0,0c0,0.5-1.1,5.1-3.3,13.8l0,0l0,0c1.5-0.3,3.4-0.5,5.7-0.6l0,0L30.2-28.2z M36.7-24.5L36.7-24.5
		c-1.5,0-2.6-0.5-3.5-1.5l0,0l0,0c-0.8-1-1.2-2.3-1.2-3.9l0,0l0,0c0-1.3,0.3-2.6,1-3.7l0,0l0,0c0.6-1.2,1.5-2.1,2.6-2.8l0,0l0,0
		c1.1-0.7,2.3-1.1,3.6-1.1l0,0l0,0c1.3,0,2.4,0.4,3.2,1.3l0,0l0,0c0.8,0.9,1.2,2.1,1.2,3.8l0,0l0,0c0,1.2-0.3,2.4-1,3.6l0,0l0,0
		c-0.7,1.3-1.5,2.3-2.6,3.1l0,0l0,0C39-24.9,37.9-24.5,36.7-24.5L36.7-24.5z M37.1-26.5L37.1-26.5c0.5,0,1.1-0.3,1.6-1l0,0l0,0
		c0.5-0.7,1-1.5,1.4-2.5l0,0l0,0c0.3-1,0.5-2,0.5-3l0,0l0,0c0-1.5-0.6-2.2-1.9-2.2l0,0l0,0c-0.7,0-1.3,0.3-1.9,1l0,0l0,0
		c-0.6,0.7-1,1.5-1.4,2.5l0,0l0,0c-0.3,1-0.5,1.9-0.5,2.7l0,0l0,0c0,0.5,0.1,0.9,0.3,1.4l0,0l0,0c0.2,0.4,0.5,0.7,0.8,1l0,0l0,0
		C36.4-26.6,36.7-26.5,37.1-26.5L37.1-26.5z M49.5-24.5L49.5-24.5C48-24.5,46.9-25,46-26l0,0l0,0c-0.8-1-1.2-2.3-1.2-3.9l0,0l0,0
		c0-1.3,0.3-2.6,1-3.7l0,0l0,0c0.6-1.2,1.5-2.1,2.6-2.8l0,0l0,0c1.1-0.7,2.3-1.1,3.6-1.1l0,0l0,0c1.3,0,2.4,0.4,3.2,1.3l0,0l0,0
		c0.8,0.9,1.2,2.1,1.2,3.8l0,0l0,0c0,1.2-0.3,2.4-1,3.6l0,0l0,0c-0.6,1.3-1.5,2.3-2.6,3.1l0,0l0,0C51.8-24.9,50.7-24.5,49.5-24.5
		L49.5-24.5z M49.9-26.5L49.9-26.5c0.5,0,1.1-0.3,1.6-1l0,0l0,0c0.6-0.7,1-1.5,1.4-2.5l0,0l0,0c0.3-1,0.5-2,0.5-3l0,0l0,0
		c0-1.5-0.6-2.2-1.9-2.2l0,0l0,0c-0.7,0-1.3,0.3-1.9,1l0,0l0,0c-0.6,0.7-1,1.5-1.4,2.5l0,0l0,0c-0.3,1-0.5,1.9-0.5,2.7l0,0l0,0
		c0,0.5,0.1,0.9,0.3,1.4l0,0l0,0c0.2,0.4,0.5,0.7,0.8,1l0,0l0,0C49.2-26.6,49.6-26.5,49.9-26.5L49.9-26.5z M60.3-26.1L60.3-26.1
		c0,0.1-0.2,1-0.7,2.8l0,0l0,0c-0.4,1.7-0.7,2.8-0.9,3.3l0,0l0,0c-0.1,0.2-0.3,0.3-0.6,0.4l0,0l0,0c-0.3,0.1-0.6,0.1-0.7,0.1l0,0
		l0,0c-0.4,0-0.7-0.1-0.9-0.3l0,0l0,0c-0.3-0.2-0.4-0.6-0.4-1.1l0,0l1.8-7.3l0,0c0.7-2.6,1.2-4.9,1.7-6.8l0,0l0,0
		c0-0.1-0.1-0.4-0.2-0.8l0,0l0,0c0-0.3-0.1-0.5-0.1-0.8l0,0l0,0c0-0.2-0.1-0.4-0.1-0.5l0,0l0,0c0-0.2,0.2-0.4,0.5-0.5l0,0l0,0
		c0.3-0.1,0.6-0.2,0.9-0.2l0,0l0,0c0.4,0,0.8,0.1,1.2,0.4l0,0l0,0c0.4,0.3,0.6,0.6,0.7,1l0,0l-0.1,0.7l0,0c0.8-1,1.7-1.4,2.9-1.4
		l0,0l0,0c1,0,1.8,0.2,2.5,0.7l0,0l0,0c0.7,0.5,1.2,1.1,1.6,1.9l0,0l0,0c0.4,0.8,0.5,1.6,0.5,2.6l0,0l0,0c0,1.3-0.2,2.5-0.7,3.6l0,0
		l0,0c-0.5,1.1-1.2,2-2.2,2.7l0,0l0,0c-1,0.7-2.2,1-3.5,1l0,0l0,0c-0.4,0-1-0.1-1.7-0.4l0,0l0,0C61-25.4,60.5-25.7,60.3-26.1
		L60.3-26.1z M61.1-29.3L61.1-29.3c0,0.2-0.1,0.3-0.1,0.4l0,0l0,0c0,0.4,0.2,0.8,0.4,1.1l0,0l0,0c0.3,0.3,0.6,0.6,0.9,0.7l0,0l0,0
		c0.4,0.2,0.7,0.3,0.9,0.3l0,0l0,0c0.7,0,1.4-0.3,2-0.8l0,0l0,0c0.6-0.6,1-1.3,1.3-2.1l0,0l0,0c0.3-0.8,0.5-1.6,0.5-2.4l0,0l0,0
		c0-0.7-0.2-1.3-0.6-1.9l0,0l0,0c-0.4-0.5-0.9-0.8-1.4-0.8l0,0l0,0c-0.7,0-1.2,0.1-1.6,0.4l0,0l0,0c-0.4,0.3-0.9,0.7-1.4,1.3l0,0
		L61.1-29.3z M88-30.6L88-30.6c-2.2,0.4-4,0.7-5.3,1l0,0l0,0c-0.4,0.6-0.7,1.1-0.8,1.3l0,0l0,0c-0.3,0.6-0.7,1.1-0.9,1.6l0,0l0,0
		c-0.3,0.4-0.6,0.8-0.9,1.1l0,0l0,0c-0.3,0.3-0.6,0.6-0.9,0.8l0,0l0,0c-0.2,0.1-0.5,0.2-0.8,0.2l0,0l0,0c-0.5,0-1-0.1-1.3-0.3l0,0
		l0,0c-0.4-0.2-0.6-0.5-0.6-0.7l0,0l0,0c0,0,0.2-0.4,0.5-1.1l0,0l0,0c0.3-0.7,1-1.6,1.9-2.7l0,0l0,0c0-0.1,0-0.3-0.1-0.5l0,0l0,0
		c-0.1-0.2-0.1-0.3-0.1-0.3l0,0l0,0c0-0.5,0.8-1.1,2.3-1.8l0,0l0,0c0.9-1.3,1.8-2.6,2.7-3.8l0,0l0,0c1-1.3,2.1-2.7,3.5-4.4l0,0l0,0
		c0.3-0.4,0.8-0.8,1.3-1l0,0l0,0c0.5-0.3,1.1-0.4,1.6-0.4l0,0l0,0c0.5,0,0.9,0,1.2,0.1l0,0l0,0c0.3,0.1,0.5,0.2,0.5,0.4l0,0l0,0
		c0.1,0.2,0.1,0.4,0.1,0.7l0,0l0,0c-0.1,0.5-0.1,0.9-0.1,1.1l0,0l0,0c-0.3,2-0.4,3.8-0.6,5.3l0,0l0,0c-0.1,1.5-0.2,2.9-0.2,4.4l0,0
		l0,0c0,1.3,0.1,2.6,0.2,3.7l0,0l0,0c0,0.4-0.2,0.8-0.5,1.1l0,0l0,0c-0.3,0.3-0.7,0.5-1.1,0.5l0,0l0,0c-0.8,0-1.3-0.2-1.5-0.6l0,0
		l0,0c-0.2-0.4-0.4-1-0.4-2l0,0l0,0C87.7-27.8,87.8-29,88-30.6L88-30.6z M84.7-32.5L84.7-32.5c0.3-0.1,0.8-0.1,1.4-0.2l0,0l2-0.3
		l0,0c0.2-2.3,0.3-4,0.5-5.1l0,0l0,0C88-37.3,86.7-35.5,84.7-32.5L84.7-32.5z M96.8-19.3L96.8-19.3c-0.8,0-1.5-0.2-2.2-0.5l0,0l0,0
		c-0.7-0.3-1.2-0.8-1.7-1.3l0,0l0,0c-0.5-0.5-0.8-1.1-1-1.6l0,0l0,0c0-0.3,0.2-0.6,0.4-0.9l0,0l0,0c0.3-0.3,0.8-0.4,1.5-0.4l0,0l0,0
		c0.2,0,0.4,0.1,0.6,0.3l0,0l0,0c0.2,0.2,0.3,0.4,0.5,0.8l0,0l0,0c0.3,0.5,0.6,0.9,0.8,1.2l0,0l0,0c0.3,0.3,0.7,0.4,1.2,0.4l0,0l0,0
		c0.6,0,1.2-0.2,1.7-0.7l0,0l0,0c0.5-0.5,1-1.1,1.4-1.9l0,0l0,0c0.4-0.8,0.7-1.7,0.8-2.6l0,0l0,0c-0.4,0.5-0.8,0.9-1.3,1.2l0,0l0,0
		c-0.5,0.3-0.9,0.4-1.4,0.4l0,0l0,0c-1.3,0-2.4-0.3-3.2-0.9l0,0l0,0c-0.8-0.6-1.2-1.7-1.2-3.2l0,0l0,0c0-1.4,0.4-2.7,1.2-3.9l0,0
		l0,0c0.8-1.2,1.8-2.1,3.1-2.9l0,0l0,0c1.3-0.7,2.6-1.1,4.1-1.1l0,0l0,0c1,0,1.7,0.2,2.1,0.6l0,0l0,0c0.5,0.4,0.8,0.9,0.8,1.5l0,0
		l0,0c0.3,0.1,0.4,0.3,0.5,0.4l0,0l0,0c0,0,0,0.2-0.1,0.5l0,0l0,0c-0.3,1.4-1,4.1-2,8.2l0,0l-0.3,1.1l0,0c-0.4,1.6-1.2,2.9-2.4,3.9
		l0,0l0,0C99.7-19.8,98.3-19.3,96.8-19.3L96.8-19.3z M102.5-34.3L102.5-34.3c-0.1-0.2-0.3-0.4-0.4-0.5l0,0l0,0
		c-0.1-0.1-0.3-0.1-0.6-0.1l0,0l0,0c-0.8,0-1.6,0.3-2.3,0.8l0,0l0,0c-0.7,0.5-1.3,1.2-1.8,2l0,0l0,0c-0.5,0.8-0.7,1.7-0.7,2.5l0,0
		l0,0c0,0.6,0.1,1.2,0.3,1.6l0,0l0,0c0.2,0.4,0.6,0.7,1.1,0.8l0,0l0,0c0.7-0.1,1.3-0.4,1.9-0.9l0,0l0,0c0.6-0.5,1-1.1,1.2-1.9l0,0
		L102.5-34.3z M109.7-40L109.7-40c0-0.5,0.2-1,0.5-1.4l0,0l0,0c0.3-0.4,0.8-0.6,1.4-0.6l0,0l0,0c0.6,0,1.2,0.2,1.6,0.6l0,0l0,0
		c0.5,0.4,0.7,0.8,0.7,1.3l0,0l0,0c0,0.5-0.2,0.9-0.7,1.3l0,0l0,0c-0.5,0.3-1,0.5-1.6,0.5l0,0l0,0c-0.6,0-1.1-0.2-1.4-0.5l0,0l0,0
		C109.9-39.1,109.7-39.5,109.7-40L109.7-40z M112.3-35.6L112.3-35.6c-0.9,3.6-1.6,6.4-2.1,8.2l0,0l0,0c-0.1,0.3-0.1,0.6-0.1,0.9l0,0
		l0,0.7l0,0c0,0.3-0.1,0.5-0.3,0.6l0,0l0,0c-0.2,0.1-0.6,0.2-1.1,0.2l0,0l0,0c-0.6,0-1-0.1-1.3-0.2l0,0l0,0
		c-0.3-0.1-0.4-0.4-0.4-0.8l0,0l0,0c0-0.2,0.2-1.2,0.7-2.9l0,0l0,0c0.4-1.8,1-4.1,1.8-7l0,0l-0.6-0.8l0,0c0,0-0.1-0.1-0.1-0.2l0,0
		l0,0c0-0.2,0.2-0.3,0.6-0.4l0,0l0,0c0.4-0.1,0.9-0.2,1.5-0.2l0,0l0,0c0.6,0,0.9,0.2,1.1,0.5l0,0l0,0
		C112.2-36.5,112.3-36.1,112.3-35.6L112.3-35.6z M120.9-43.1l-1,4.4l0,0c-1.9,8-3,12.6-3.4,13.7l0,0l0,0c0,0.1-0.2,0.2-0.5,0.4l0,0
		l0,0c-0.3,0.2-0.5,0.3-0.7,0.3l0,0l0,0c-0.5,0-0.9-0.1-1.4-0.4l0,0l0,0c-0.4-0.2-0.7-0.6-0.7-1.1l0,0l0,0c0,0,0.1-0.2,0.3-0.5l0,0
		l0,0c0.2-0.3,0.3-0.8,0.5-1.4l0,0l0,0c0.4-1.4,0.8-3.2,1.3-5.2l0,0l0,0c0.5-2,0.8-3.3,1-4l0,0l1.2-4.8l0,0c0-0.1,0-0.8,0-2.1l0,0
		l0,0c0-0.2,0.2-0.4,0.6-0.5l0,0l0,0c0.3-0.1,0.6-0.2,0.9-0.2l0,0l0,0c0.4,0,0.9,0.1,1.3,0.4l0,0l0,0
		C120.7-43.9,120.9-43.5,120.9-43.1L120.9-43.1z M125.6-24.5L125.6-24.5c-1.6,0-2.9-0.3-3.6-1l0,0l0,0c-0.8-0.7-1.1-1.5-1.1-2.6l0,0
		l0,0c0-1.6,0.4-3.1,1.2-4.4l0,0l0,0c0.8-1.4,1.9-2.5,3.2-3.3l0,0l0,0c1.3-0.8,2.8-1.2,4.3-1.2l0,0l0,0c1,0,1.7,0.3,2.4,0.8l0,0l0,0
		c0.6,0.5,1,1.3,1,2.3l0,0l0,0c0,0.6-0.2,1.1-0.6,1.5l0,0l0,0c-0.4,0.4-0.9,0.7-1.6,1l0,0l0,0c-0.7,0.3-1.9,0.7-3.4,1.2l0,0l0,0
		c-1.4,0.5-2.6,0.9-3.5,1.2l0,0l0,0c-0.1,0.3-0.1,0.5-0.1,0.8l0,0l0,0c0,0.5,0.2,0.8,0.6,1.1l0,0l0,0c0.4,0.3,1,0.4,1.7,0.4l0,0l0,0
		c0.5,0,1-0.1,1.6-0.3l0,0l0,0c0.6-0.2,1-0.4,1.1-0.7l0,0l0,0c0.6-1,1.1-1.6,1.6-1.6l0,0l0,0c0.7,0,1.2,0.1,1.4,0.4l0,0l0,0
		c0.2,0.3,0.4,0.5,0.4,0.9l0,0l0,0c-0.2,0.5-0.6,1.1-1.2,1.6l0,0l0,0c-0.6,0.6-1.3,1-2.3,1.4l0,0l0,0
		C127.6-24.7,126.7-24.5,125.6-24.5L125.6-24.5z M124.5-31.3L124.5-31.3c1.7-0.5,3-1,4.1-1.5l0,0l0,0c1.1-0.5,1.6-0.9,1.6-1.4l0,0
		l0,0c0-0.2-0.1-0.4-0.3-0.5l0,0l0,0c-0.2-0.1-0.5-0.2-0.7-0.2l0,0l0,0c-0.5,0-1.1,0.2-1.7,0.6l0,0l0,0c-0.7,0.4-1.3,0.9-1.8,1.4
		l0,0l0,0C125.1-32.3,124.7-31.8,124.5-31.3L124.5-31.3z M155.7-41.9L155.7-41.9c0.6,0.1,1,0.2,1.2,0.3l0,0l0,0
		c0.2,0.1,0.3,0.2,0.4,0.3l0,0l0,0c-0.4,1.4-0.8,3.3-1.4,5.8l0,0l0,0c-0.6,2.5-1,4.2-1.2,5l0,0l0,0c-0.4,1.7-0.7,3.3-1,4.6l0,0l0,0
		c-0.2,0.9-0.6,1.4-1.1,1.4l0,0l0,0c-1.3,0-2.1-0.3-2.3-0.8l0,0l-0.1,0.1l-4.1-11l-1.6,6.4l0,0c-0.3,1.2-0.6,2.5-1,4l0,0l0,0
		c-0.1,0.5-0.3,0.8-0.5,1l0,0l0,0c-0.3,0.2-0.7,0.3-1.4,0.3l0,0l0,0c-0.5,0-0.9-0.1-1.1-0.3l0,0l0,0c-0.3-0.2-0.4-0.5-0.4-0.9l0,0
		l0,0c0-0.2,0-0.4,0.1-0.5l0,0l3.4-13.7l0,0c0.2-0.7,0.4-1.2,0.6-1.5l0,0l0,0c0.2-0.2,0.6-0.4,1.2-0.4l0,0l0,0c0.5,0,0.9,0,1.2,0.1
		l0,0l0,0c0.4,0.1,0.5,0.3,0.6,0.5l0,0v0.1l4.1,11.3l0,0c1.1-5.3,1.8-8.4,2.1-9.3l0,0l0,0c0.2-0.7,0.5-1.3,1-1.8l0,0l0,0
		C154.7-41.5,155.2-41.8,155.7-41.9L155.7-41.9z M147.2-41.3L147.2-41.3z M150.2-25.5L150.2-25.5z M162.9-24.5L162.9-24.5
		c-1.5,0-2.6-0.5-3.5-1.5l0,0l0,0c-0.8-1-1.2-2.3-1.2-3.9l0,0l0,0c0-1.3,0.3-2.6,1-3.7l0,0l0,0c0.6-1.2,1.5-2.1,2.6-2.8l0,0l0,0
		c1.1-0.7,2.3-1.1,3.6-1.1l0,0l0,0c1.3,0,2.4,0.4,3.2,1.3l0,0l0,0c0.8,0.9,1.2,2.1,1.2,3.8l0,0l0,0c0,1.2-0.3,2.4-1,3.6l0,0l0,0
		c-0.6,1.3-1.5,2.3-2.6,3.1l0,0l0,0C165.2-24.9,164.1-24.5,162.9-24.5L162.9-24.5z M163.3-26.5L163.3-26.5c0.5,0,1.1-0.3,1.6-1l0,0
		l0,0c0.6-0.7,1-1.5,1.4-2.5l0,0l0,0c0.3-1,0.5-2,0.5-3l0,0l0,0c0-1.5-0.6-2.2-1.9-2.2l0,0l0,0c-0.7,0-1.3,0.3-1.9,1l0,0l0,0
		c-0.6,0.7-1,1.5-1.4,2.5l0,0l0,0c-0.3,1-0.5,1.9-0.5,2.7l0,0l0,0c0,0.5,0.1,0.9,0.3,1.4l0,0l0,0c0.2,0.4,0.5,0.7,0.8,1l0,0l0,0
		C162.6-26.6,163-26.5,163.3-26.5L163.3-26.5z M179-30.5L179-30.5c-0.6,1.9-1.3,3.3-2.3,4.3l0,0l0,0c-0.9,1-1.9,1.6-2.8,1.6l0,0l0,0
		c-1.7,0-2.5-1.5-2.5-4.6l0,0l0,0c0-1.3,0.2-2.5,0.5-3.7l0,0l0,0c0.3-1.2,0.7-2.2,1-3.1l0,0l0,0c0.3-0.7,0.8-1.1,1.6-1.1l0,0l0,0
		c0.9,0,1.3,0.4,1.3,1.2l0,0l0,0c0,0.1-0.1,0.4-0.3,1l0,0l0,0c-0.9,2.5-1.4,4.3-1.4,5.7l0,0l0,0c0,0.6,0.1,1.1,0.2,1.5l0,0l0,0
		c0.1,0.4,0.3,0.6,0.5,0.6l0,0l0,0c0.5,0,1-0.5,1.5-1.6l0,0l0,0c0.6-1,1.1-2.3,1.6-3.7l0,0l0,0c0.5-1.4,0.8-2.7,1-3.8l0,0l0,0
		c0-0.2,0.2-0.4,0.5-0.6l0,0l0,0c0.3-0.2,0.5-0.3,0.8-0.3l0,0l0,0c0.4,0,0.8,0.1,0.9,0.3l0,0l0,0c0.2,0.2,0.3,0.5,0.3,0.9l0,0l0,0
		c0,0.1-0.1,0.3-0.2,0.8l0,0l0,0c-0.3,1.3-0.5,2.5-0.6,3.4l0,0l0,0c-0.1,0.9-0.2,1.8-0.2,2.6l0,0l0,0c0,0.5,0.1,1,0.3,1.3l0,0l0,0
		c0.2,0.3,0.4,0.5,0.7,0.5l0,0l0,0c0.8,0,1.5-1,2.1-2.9l0,0l0,0c0.7-1.9,1.2-4,1.6-6.2l0,0l0,0c0.1-0.4,0.4-0.7,1.1-0.7l0,0l0,0
		c0.4,0,0.7,0.1,1.1,0.2l0,0l0,0c0.3,0.1,0.5,0.3,0.6,0.4l0,0l-0.3,1.3l0,0c-0.5,2.2-0.9,4-1.3,5.3l0,0l0,0
		c-0.4,1.3-1.1,2.5-1.9,3.5l0,0l0,0c-0.8,1-1.9,1.5-3.3,1.5l0,0l0,0c-1.5,0-2.3-1.2-2.3-3.6l0,0l0,0c0-0.7,0.1-1.5,0.2-2.3l0,0H179z
		"/>
</g>
</svg>
